<svg width="17" height="17" viewBox="0 0 17 17" fill="none" xmlns="http://www.w3.org/2000/svg">
<g clip-path="url(#clip0_2005_355)">
<path d="M14.0627 12.9593V13.6414H2.00897V12.9593L3.34828 11.5952V7.50276C3.34828 5.38835 4.70767 3.5263 6.69654 2.92608V2.72828C6.69654 2.36648 6.83765 2.01951 7.08882 1.76368C7.33998 1.50786 7.68064 1.36414 8.03585 1.36414C8.39105 1.36414 8.73171 1.50786 8.98288 1.76368C9.23405 2.01951 9.37515 2.36648 9.37515 2.72828V2.92608C11.364 3.5263 12.7234 5.38835 12.7234 7.50276V11.5952L14.0627 12.9593ZM9.37515 14.3235C9.37515 14.6853 9.23405 15.0322 8.98288 15.2881C8.73171 15.5439 8.39105 15.6876 8.03585 15.6876C7.68064 15.6876 7.33998 15.5439 7.08882 15.2881C6.83765 15.0322 6.69654 14.6853 6.69654 14.3235" fill="#111111"/>
</g>
<defs>
<clipPath id="clip0_2005_355">
<rect width="16.0717" height="16.3697" fill="white"/>
</clipPath>
</defs>
</svg>
