<svg width="202" height="187" viewBox="0 0 202 187" fill="none" xmlns="http://www.w3.org/2000/svg">
<path d="M138.45 67.0231C128.497 63.4957 122.116 62.5645 109.731 62.2131H101.043H92.4978C80.23 62.2954 73.9256 63.2833 63.9021 67.0231C80.8358 79.7384 88.9236 87.6607 101.043 103.098C114.592 86.0268 122.744 78.0268 138.45 67.0231Z" fill="url(#paint0_linear_4103_341)"/>
<path d="M126.437 27.8244C124.321 44.1243 116.183 54.8265 100.657 55.6489C89.0314 55.6489 75.889 43.7241 74.878 27.8244C73.5643 7.16503 86.4199 0 100.657 0C114.895 0 128.892 8.9093 126.437 27.8244Z" fill="url(#paint1_linear_4103_341)"/>
<path d="M196.305 55.8399C167.689 47.7711 148.324 58.2319 112.572 95.6177C145.44 69.2327 163.913 60.0037 193.784 65.0535L196.305 55.8399Z" fill="url(#paint2_linear_4103_341)"/>
<path d="M195.471 79.3613L198.215 70.0408C172.219 60.172 141.787 72.8235 102.606 105.709L103.469 106.42C143.941 82.5741 164.894 74.2817 195.471 79.3613Z" fill="url(#paint3_linear_4103_341)"/>
<path fill-rule="evenodd" clip-rule="evenodd" d="M101.888 109.625V178.517C130.539 167.285 143.67 169.912 163.021 187L177.883 147.198L184.893 128.458L184.882 128.454L201.9 82.8769C167.306 72.8601 144.186 84.3216 101.888 109.625ZM184.882 128.454L172.01 123.948C170.177 123.307 168.144 124.196 167.468 125.936C167.213 126.591 167.188 127.274 167.353 127.904L167.116 127.821C165.283 127.18 163.25 128.07 162.574 129.809C161.898 131.548 162.836 133.478 164.668 134.12L164.98 134.229C164.539 134.589 164.184 135.058 163.969 135.613C163.293 137.352 164.23 139.282 166.063 139.923L167.199 140.321C166.778 140.676 166.44 141.132 166.232 141.668C165.556 143.407 166.493 145.337 168.326 145.979L177.18 149.078L177.883 147.198L184.882 128.454Z" fill="url(#paint4_linear_4103_341)"/>
<rect width="23.0053" height="4.03464" rx="1.65777" transform="matrix(0.943848 0.330381 -0.362229 0.932089 169.536 124.523)" fill="url(#paint5_linear_4103_341)"/>
<rect width="23.0053" height="4.03464" rx="1.65777" transform="matrix(0.943848 0.330381 -0.362229 0.932089 166.036 134.201)" fill="url(#paint6_linear_4103_341)"/>
<rect width="17.1556" height="4.03464" rx="1.65777" transform="matrix(0.943848 0.330381 -0.362229 0.932089 168.299 140.256)" fill="url(#paint7_linear_4103_341)"/>
<rect width="28.1119" height="4.03464" rx="1.65777" transform="matrix(0.943848 0.330381 -0.362229 0.932089 164.641 128.397)" fill="url(#paint8_linear_4103_341)"/>
<path d="M5.59583 55.8399C34.2113 47.7711 53.5763 58.2319 89.3282 95.6177C56.4606 69.2327 37.9873 60.0037 8.1162 65.0535L5.59583 55.8399Z" fill="url(#paint9_linear_4103_341)"/>
<path d="M6.42905 79.3613L3.68504 70.0408C29.6812 60.172 60.1133 72.8235 99.2948 105.709L98.4313 106.42C57.9596 82.5741 37.0061 74.2817 6.42905 79.3613Z" fill="url(#paint10_linear_4103_341)"/>
<path fill-rule="evenodd" clip-rule="evenodd" d="M100.013 109.625V178.517C71.3611 167.285 58.2305 169.912 38.8795 187L24.0393 147.256L17.0072 128.458L17.0184 128.454L3.8147e-06 82.8769C34.5944 72.8601 57.7146 84.3216 100.013 109.625ZM17.0184 128.454L29.8904 123.948C31.723 123.307 33.7566 124.196 34.4325 125.936C34.6872 126.591 34.7128 127.274 34.5476 127.904L34.7845 127.821C36.6171 127.18 38.6507 128.07 39.3266 129.809C40.0025 131.548 39.0648 133.478 37.2322 134.12L36.92 134.229C37.3619 134.589 37.7161 135.058 37.9319 135.613C38.6078 137.352 37.6701 139.282 35.8375 139.923L34.7014 140.321C35.1226 140.676 35.4602 141.132 35.6688 141.668C36.3447 143.407 35.407 145.337 33.5744 145.979L24.7207 149.078L24.0393 147.256L17.0184 128.454Z" fill="url(#paint11_linear_4103_341)"/>
<rect width="23.0053" height="4.03464" rx="1.65777" transform="matrix(-0.943848 0.330381 0.362229 0.932089 32.3645 124.523)" fill="url(#paint12_linear_4103_341)"/>
<rect width="23.0053" height="4.03464" rx="1.65777" transform="matrix(-0.943848 0.330381 0.362229 0.932089 35.8649 134.201)" fill="url(#paint13_linear_4103_341)"/>
<rect width="17.1556" height="4.03464" rx="1.65777" transform="matrix(-0.943848 0.330381 0.362229 0.932089 33.6013 140.256)" fill="url(#paint14_linear_4103_341)"/>
<rect width="28.1119" height="4.03464" rx="1.65777" transform="matrix(-0.943848 0.330381 0.362229 0.932089 37.259 128.397)" fill="url(#paint15_linear_4103_341)"/>
<defs>
<linearGradient id="paint0_linear_4103_341" x1="101.176" y1="62.2131" x2="101.176" y2="103.098" gradientUnits="userSpaceOnUse">
<stop stop-color="#5C4E8E" stop-opacity="0.7"/>
<stop offset="1" stop-color="#FBFBFB"/>
</linearGradient>
<linearGradient id="paint1_linear_4103_341" x1="100.752" y1="0" x2="100.752" y2="55.6489" gradientUnits="userSpaceOnUse">
<stop stop-color="#5C4E8E" stop-opacity="0.7"/>
<stop offset="1" stop-color="#FBFBFB"/>
</linearGradient>
<linearGradient id="paint2_linear_4103_341" x1="154.438" y1="53.2855" x2="154.438" y2="95.6177" gradientUnits="userSpaceOnUse">
<stop stop-color="#5C4E8E" stop-opacity="0.7"/>
<stop offset="1" stop-color="#FBFBFB"/>
</linearGradient>
<linearGradient id="paint3_linear_4103_341" x1="150.411" y1="66.7728" x2="150.411" y2="106.42" gradientUnits="userSpaceOnUse">
<stop stop-color="#5C4E8E" stop-opacity="0.7"/>
<stop offset="1" stop-color="#FBFBFB"/>
</linearGradient>
<linearGradient id="paint4_linear_4103_341" x1="151.894" y1="79.2699" x2="151.894" y2="187" gradientUnits="userSpaceOnUse">
<stop stop-color="#5C4E8E" stop-opacity="0.7"/>
<stop offset="1" stop-color="#FBFBFB"/>
</linearGradient>
<linearGradient id="paint5_linear_4103_341" x1="11.5026" y1="0" x2="11.5026" y2="4.03464" gradientUnits="userSpaceOnUse">
<stop stop-color="#5C4E8E" stop-opacity="0.7"/>
<stop offset="1" stop-color="#FBFBFB"/>
</linearGradient>
<linearGradient id="paint6_linear_4103_341" x1="11.5026" y1="0" x2="11.5026" y2="4.03464" gradientUnits="userSpaceOnUse">
<stop stop-color="#5C4E8E" stop-opacity="0.7"/>
<stop offset="1" stop-color="#FBFBFB"/>
</linearGradient>
<linearGradient id="paint7_linear_4103_341" x1="8.5778" y1="0" x2="8.5778" y2="4.03464" gradientUnits="userSpaceOnUse">
<stop stop-color="#5C4E8E" stop-opacity="0.7"/>
<stop offset="1" stop-color="#FBFBFB"/>
</linearGradient>
<linearGradient id="paint8_linear_4103_341" x1="14.056" y1="0" x2="14.056" y2="4.03464" gradientUnits="userSpaceOnUse">
<stop stop-color="#5C4E8E" stop-opacity="0.7"/>
<stop offset="1" stop-color="#FBFBFB"/>
</linearGradient>
<linearGradient id="paint9_linear_4103_341" x1="47.462" y1="53.2855" x2="47.462" y2="95.6177" gradientUnits="userSpaceOnUse">
<stop stop-color="#5C4E8E" stop-opacity="0.7"/>
<stop offset="1" stop-color="#FBFBFB"/>
</linearGradient>
<linearGradient id="paint10_linear_4103_341" x1="51.4899" y1="66.7728" x2="51.4899" y2="106.42" gradientUnits="userSpaceOnUse">
<stop stop-color="#5C4E8E" stop-opacity="0.7"/>
<stop offset="1" stop-color="#FBFBFB"/>
</linearGradient>
<linearGradient id="paint11_linear_4103_341" x1="50.0064" y1="79.2699" x2="50.0064" y2="187" gradientUnits="userSpaceOnUse">
<stop stop-color="#5C4E8E" stop-opacity="0.7"/>
<stop offset="1" stop-color="#FBFBFB"/>
</linearGradient>
<linearGradient id="paint12_linear_4103_341" x1="11.5026" y1="0" x2="11.5026" y2="4.03464" gradientUnits="userSpaceOnUse">
<stop stop-color="#5C4E8E" stop-opacity="0.7"/>
<stop offset="1" stop-color="#FBFBFB"/>
</linearGradient>
<linearGradient id="paint13_linear_4103_341" x1="11.5026" y1="0" x2="11.5026" y2="4.03464" gradientUnits="userSpaceOnUse">
<stop stop-color="#5C4E8E" stop-opacity="0.7"/>
<stop offset="1" stop-color="#FBFBFB"/>
</linearGradient>
<linearGradient id="paint14_linear_4103_341" x1="8.5778" y1="0" x2="8.5778" y2="4.03464" gradientUnits="userSpaceOnUse">
<stop stop-color="#5C4E8E" stop-opacity="0.7"/>
<stop offset="1" stop-color="#FBFBFB"/>
</linearGradient>
<linearGradient id="paint15_linear_4103_341" x1="14.056" y1="0" x2="14.056" y2="4.03464" gradientUnits="userSpaceOnUse">
<stop stop-color="#5C4E8E" stop-opacity="0.7"/>
<stop offset="1" stop-color="#FBFBFB"/>
</linearGradient>
</defs>
</svg>
