<svg width="17" height="17" viewBox="0 0 17 17" fill="none" xmlns="http://www.w3.org/2000/svg">
<g clip-path="url(#clip0_2005_335)">
<path d="M14.4333 2.72827C14.3724 2.72188 14.3111 2.72188 14.2502 2.72827H1.75004C1.66992 2.72953 1.59034 2.74176 1.51343 2.76465L7.96442 9.30797L14.4333 2.72827Z" fill="#111111"/>
<path d="M15.094 3.36032L8.59389 9.95366C8.4266 10.123 8.2003 10.2181 7.96442 10.2181C7.72853 10.2181 7.50223 10.123 7.33494 9.95366L0.892884 3.41034C0.87308 3.48448 0.862579 3.56087 0.861633 3.6377V12.732C0.861633 12.9732 0.955703 13.2045 1.12315 13.375C1.29059 13.5456 1.5177 13.6414 1.7545 13.6414H14.2547C14.4915 13.6414 14.7186 13.5456 14.886 13.375C15.0535 13.2045 15.1476 12.9732 15.1476 12.732V3.6377C15.144 3.54296 15.1259 3.44937 15.094 3.36032ZM2.36612 12.732H1.74558V12.0817L4.99116 8.80324L5.62063 9.44438L2.36612 12.732ZM14.2458 12.732H13.6208L10.3662 9.44438L10.9957 8.80324L14.2413 12.0817L14.2458 12.732Z" fill="#111111"/>
</g>
<defs>
<clipPath id="clip0_2005_335">
<rect width="16.0717" height="16.3697" fill="white"/>
</clipPath>
</defs>
</svg>
